<svg width="207" height="91" viewBox="0 0 207 91" fill="none" xmlns="http://www.w3.org/2000/svg">
<path d="M190.005 48.8551C187.683 45.1918 187.808 41.4434 190.005 37.6649L205.297 15.2694C208.328 10.8294 207.2 4.76574 202.781 1.72388C198.358 -1.31797 192.316 -0.185418 189.286 4.24957L177.872 20.9622C176.01 23.4027 173.623 23.7535 171.262 21.0725C171.262 21.0725 165.221 12.1073 165.166 12.002C161.201 4.64547 152.479 0 143.108 0C119.766 0 119.986 17.5345 119.986 18.5217V49.4013C119.986 52.9242 119.986 63.6534 106.036 63.6534C92.0865 63.6534 92.0865 52.9292 92.0865 49.4013V11.4759C92.0865 4.14935 84.0232 -1.29291 76.3144 3.60813C74.2973 4.89102 72.6697 7.93287 72.6697 10.3283C72.6697 10.3283 72.6447 43.503 72.6447 43.9991C72.6447 48.1234 68.4258 53.4955 61.7755 58.0508C54.8505 62.7915 46.0033 65.9736 39.7674 65.9736C29.1128 65.9736 19.4119 55.1292 19.4119 43.2274C19.4119 31.3256 27.5051 22.5658 38.2346 22.5658C40.5662 22.5658 42.5983 22.7813 45.7387 25.4674C49.8178 28.9602 55.9439 28.4691 59.4239 24.3749C62.9038 20.2807 62.4145 14.1318 58.3355 10.639C50.4169 3.85869 43.0676 3.07693 38.2346 3.07693C16.7957 3.08194 0 20.7167 0 43.2274C0 53.696 4.12402 64.2748 11.3136 72.2578C11.8978 72.9092 12.5019 73.5357 13.116 74.142C11.733 79.3437 10.6645 82.2904 4.2089 85.5277C2.49139 86.3896 2.62619 88.8602 4.44356 89.5016C13.2857 92.6237 21.7335 91.01 27.7348 83.3979C31.5892 84.7559 35.6383 85.4625 39.7774 85.4625C51.2208 85.4625 66.1242 79.9301 77.0733 70.9348C78.2366 69.9626 78.7309 70.3034 79.6296 71.471C80.6731 72.789 81.7465 73.9165 82.775 74.8536C88.7014 80.2758 96.7498 83.1373 106.041 83.1373C115.333 83.1373 123.376 80.2708 129.308 74.8536C133.916 70.6391 139.408 62.8065 139.408 49.4013V23.508C139.408 19.8647 146.038 17.329 148.794 22.2952L159.114 37.6548C161.311 41.4333 161.176 45.1567 158.855 48.82L144.406 69.9776C141.375 74.4176 142.503 80.4813 146.922 83.5232C148.6 84.6758 150.512 85.232 152.399 85.232C155.495 85.232 158.535 83.7487 160.413 80.9975L171.127 65.3071C173.354 62.6562 175.63 62.3505 177.942 65.678L188.212 80.9524C190.09 83.7336 193.145 85.232 196.261 85.232C198.198 85.232 200.155 84.6507 201.862 83.438C206.206 80.351 207.14 74.2523 204.159 69.8323L190.01 48.8551H190.005Z" fill="url(#paint0_linear_495_1051)"/>
<defs>
<linearGradient id="paint0_linear_495_1051" x1="103.499" y1="0" x2="103.499" y2="91.0028" gradientUnits="userSpaceOnUse">
<stop stop-color="#F5E6C0"/>
<stop offset="0.177083" stop-color="#E5B6C0"/>
<stop offset="0.5" stop-color="#D789B3"/>
<stop offset="0.776042" stop-color="#A975AA"/>
<stop offset="1" stop-color="#8869A5"/>
</linearGradient>
</defs>
</svg>
