<svg width="47" height="47" viewBox="0 0 47 47" fill="none" xmlns="http://www.w3.org/2000/svg">
<circle cx="23.5" cy="23.5" r="23.5" fill="url(#paint0_linear_522_1054)"/>
<g clip-path="url(#clip0_522_1054)">
<path d="M35.5369 23.9793C35.2004 23.456 35.2185 22.9205 35.5369 22.3807L37.7533 19.1813C38.1925 18.5471 38.0289 17.6808 37.3886 17.2463C36.7475 16.8117 35.8719 16.9735 35.4327 17.6071L33.7786 19.9946C33.5087 20.3432 33.1628 20.3934 32.8205 20.0104C32.8205 20.0104 31.945 18.7296 31.937 18.7146C31.3625 17.6636 30.0984 17 28.7402 17C25.3575 17 25.3893 19.5049 25.3893 19.646V24.0573C25.3893 24.5606 25.3893 26.0933 23.3676 26.0933C21.3459 26.0933 21.3459 24.5613 21.3459 24.0573V18.6394C21.3459 17.5928 20.1773 16.8153 19.0601 17.5154C18.7677 17.6987 18.5318 18.1333 18.5318 18.4755C18.5318 18.4755 18.5282 23.2147 18.5282 23.2856C18.5282 23.8748 17.9168 24.6422 16.953 25.293C15.9493 25.9702 14.6671 26.4248 13.7634 26.4248C12.2192 26.4248 10.8133 24.8756 10.8133 23.1753C10.8133 21.4751 11.9863 20.2237 13.5412 20.2237C13.8792 20.2237 14.1737 20.2545 14.6288 20.6382C15.22 21.1372 16.1078 21.067 16.6122 20.4821C17.1165 19.8972 17.0456 19.0188 16.4544 18.5199C15.3068 17.5512 14.2417 17.4396 13.5412 17.4396C10.4342 17.4403 8 19.9595 8 23.1753C8 24.6709 8.59768 26.1821 9.63965 27.3225C9.72431 27.4156 9.81187 27.5051 9.90087 27.5917C9.70043 28.3348 9.54559 28.7558 8.60999 29.2182C8.36107 29.3414 8.38061 29.6943 8.64399 29.7859C9.92547 30.232 11.1498 30.0014 12.0195 28.914C12.5781 29.108 13.165 29.2089 13.7648 29.2089C15.4233 29.2089 17.5832 28.4186 19.17 27.1335C19.3386 26.9947 19.4103 27.0433 19.5405 27.2101C19.6918 27.3984 19.8473 27.5595 19.9964 27.6934C20.8553 28.468 22.0217 28.8768 23.3683 28.8768C24.7149 28.8768 25.8806 28.4673 26.7402 27.6934C27.4081 27.0913 28.2041 25.9724 28.2041 24.0573V20.3583C28.2041 19.8378 29.165 19.4756 29.5644 20.185L31.0601 22.3793C31.3784 22.919 31.3589 23.451 31.0224 23.9743L28.9284 26.9968C28.4891 27.6311 28.6527 28.4973 29.2931 28.9319C29.5362 29.0965 29.8133 29.176 30.0868 29.176C30.5355 29.176 30.9761 28.9641 31.2482 28.5711L32.801 26.3296C33.1237 25.9509 33.4537 25.9072 33.7887 26.3826L35.2771 28.5646C35.5492 28.9619 35.992 29.176 36.4436 29.176C36.7243 29.176 37.008 29.093 37.2554 28.9197C37.8849 28.4787 38.0203 27.6075 37.5883 26.976L35.5376 23.9793H35.5369Z" fill="white"/>
</g>
<defs>
<linearGradient id="paint0_linear_522_1054" x1="23.5" y1="0" x2="23.5" y2="47" gradientUnits="userSpaceOnUse">
<stop stop-color="#F5E6C0"/>
<stop offset="0.177083" stop-color="#E5B6C0"/>
<stop offset="0.5" stop-color="#D789B3"/>
<stop offset="0.776042" stop-color="#A975AA"/>
<stop offset="1" stop-color="#8869A5"/>
</linearGradient>
<clipPath id="clip0_522_1054">
<rect width="30" height="13" fill="white" transform="translate(8 17)"/>
</clipPath>
</defs>
</svg>
